{"title":"The Frozen Ground 2013 HDRip x264-PLAYNOW","uid":8841137,"size":1081695895,"categoryP":"video","categoryS":"movies","magnet":"?xt=urn:btih:463dbb802ce19c9145baa86ab4b548f494b007bf&amp;dn=The+Frozen+Ground+2013+HDRip+x264-PLAYNOW&amp;tr=udp%3A%2F%2Ftracker.openbittorrent.com%3A80&amp;tr=udp%3A%2F%2Fopen.demonii.com%3A1337&amp;tr=udp%3A%2F%2Ftracker.coppersurfer.tk%3A6969&amp;tr=udp%3A%2F%2Fexodus.desync.com%3A6969","seeders":1,"leechers":0,"uploader":"TeX","files":3,"time":1377248125,"description":"The Frozen Ground (2013)\nPlot: An Alaska State Trooper partners with a young woman who escaped the clutches of serial killer Robert Hansen to bring the murderer to justice. Based on actual events. &lt;a href=&quot;\nhttp://www.imdb.com/title/tt2005374/&quot; rel=&quot;nofollow&quot; target=&quot;_NEW&quot;&gt;\nhttp://www.imdb.com/title/tt2005374/&lt;/a&gt;\nGenre: Crime | Thriller\niMDB Rating: 6,8/10 from 790 users\nDirector: Scott Walker\nStarring: Vanessa Hudgens, Nicolas Cage, Dean Norris\nRelease Title: The Frozen Ground 2013 HDRip x264-PLAYNOW\nRelease Date: 23.08.2013\nVideo.....: x264 1200Kbps\nAudio.....: English AAC 224Kbps\nResolution: 720x304\nSize......: 1.01GB\nRuntime...: 1h 45mn\n\nSource Used: iTunes\nGeneral\nComplete name : D:tv shows todaytv shows todayDavid.Letterman.2013.08.20.Louis.C.K.720p.HDTV.x264-BAJSKORVThe Frozen Ground 2013 HDRip x264-PLAYNOWplaynow-the.frozen.ground.hdrip.x264-1.mp4\nFormat : MPEG-4\nFormat profile : Base Media / Version 2\nCodec ID : mp42\nFile size : 1.01 GiB\nDuration : 1h 45mn\nOverall bit rate mode : Variable\nOverall bit rate : 1 366 Kbps\nMovie name : The Frozen Ground\nPerformer : Scott Walker\nGenre : Thriller\nRecorded date : UTC 2013-08-23 07:00:00\nEncoded date : UTC 2013-08-23 05:31:03\nTagged date : UTC 2013-08-23 05:47:55\nCover : Yes\ndesc : Inspired by the incredible true story, an Alaskan State Trooper (Nicholas Cage) must partner with a near victim and the only witness to escape the clutches of the serial killer in order to bring the murderer to justice.\nldes : Inspired by the incredible true story, an Alaskan State Trooper (Nicholas Cage) must partner with a near victim and the only witness to escape the clutches of the serial killer in order to bring the murderer to justice.\n\nVideo\nID : 1\nFormat : AVC\nFormat/Info : Advanced Video Codec\nFormat profile : &lt;a class=&quot;__cf_email__&quot; href=&quot;/cdn-cgi/l/email-protection&quot; data-cfemail=&quot;89c1e0eee1c9c5bda7b9&quot;&gt;[email&amp;#160;protected]&lt;/a&gt;&lt;script cf-hash='f9e31' type=&quot;text/javascript&quot;&gt;\n/* &lt;![CDATA[ */!function(){try{var t=&quot;currentScript&quot;in document?document.currentScript:function(){for(var t=document.getElementsByTagName(&quot;script&quot;),e=t.length;e--;)if(t[e].getAttribute(&quot;cf-hash&quot;))return t[e]}();if(t&amp;&amp;t.previousSibling){var e,r,n,i,c=t.previousSibling,a=c.getAttribute(&quot;data-cfemail&quot;);if(a){for(e=&quot;&quot;,r=parseInt(a.substr(0,2),16),n=2;a.length-n;n+=2)i=parseInt(a.substr(n,2),16)^r,e+=String.fromCharCode(i);e=document.createTextNode(e),c.parentNode.replaceChild(e,c)}}}catch(u){}}();/* ]]&gt; */&lt;/script&gt;\nFormat settings, CABAC : Yes\nFormat settings, ReFrames : 4 frames\nCodec ID : avc1\nCodec ID/Info : Advanced Video Coding\nDuration : 1h 45mn\nBit rate mode : Variable\nBit rate : 1 137 Kbps\nNominal bit rate : 1 200 Kbps\nWidth : 720 pixels\nHeight : 304 pixels\nDisplay aspect ratio : 2.35:1\nFrame rate mode : Variable\nFrame rate : 23.976 fps\nMinimum frame rate : 23.974 fps\nMaximum frame rate : 90 000.000 fps\nColor space : YUV\nChroma subsampling : 4:2:0\nBit depth : 8 bits\nScan type : Progressive\nBits/(Pixel*Frame) : 0.217\nStream size : 859 MiB (83%)\nWriting library : x264 core 130 r2273 b3065e6\nEncoding settings : cabac=1 // deblock=1:0:0 / analyse=0x3:0x113 / me=hex / subme=2 / psy=1 / psy_rd=1.00:0.00 // me_range=16 / chroma_me=1 / trellis=0 / 8x8dct=1 / cqm=0 / deadzone=21,11 / fast_pskip=1 / chroma_qp_offset=0 / threads=12 / lookahead_threads=2 / sliced_threads=0 / nr=0 / decimate=1 / interlaced=0 / bluray_compat=0 / constrained_intra=0 / bframes=3 / b_pyramid=2 / b_adapt=1 / b_bias=0 / direct=1 / weightb=1 / open_gop=0 / weightp=1 / keyint=240 / keyint_min=24 / scenecut=40 / intra_refresh=0 / rc_lookahead=10 / rc=abr / mbtree=1 / bitrate=1200 / ratetol=1.0 / qcomp=0.60 / qpmin=0 / qpmax=69 / qpstep=4 / vbv_maxrate=25000 / vbv_bufsize=31250 / nal_hrd=none / ip_ratio=1.40 / aq=1:1.00\nEncoded date : UTC 2013-08-23 05:31:03\nTagged date : UTC 2013-08-23 05:47:52\nColor primaries : BT.709\nTransfer characteristics : BT.709\nMatrix coefficients : BT.709\n\nAudio\nID : 2\nFormat : AAC\nFormat/Info : Advanced Audio Codec\nFormat profile : LC\nCodec ID : 40\nDuration : 1h 45mn\nBit rate mode : Variable\nBit rate : 224 Kbps\nMaximum bit rate : 356 Kbps\nChannel(s) : 2 channels\nChannel positions : Front: L R\nSampling rate : 48.0 KHz\nCompression mode : Lossy\nDelay relative to video : 83ms\nStream size : 169 MiB (16%)\nLanguage : English\nEncoded date : UTC 2013-08-23 05:31:03\nTagged date : UTC 2013-08-23 05:47:51\n\nMenu\nID : 3\nCodec ID : text\nDuration : 1h 45mn\nEncoded date : UTC 2013-08-23 05:31:03\nTagged date : UTC 2013-08-23 05:47:52\nBit rate mode : VBR\n","torrent":{"xt":"urn:btih:463dbb802ce19c9145baa86ab4b548f494b007bf","amp;dn":"The+Frozen+Ground+2013+HDRip+x264-PLAYNOW","amp;tr":["udp%3A%2F%2Ftracker.openbittorrent.com%3A80","udp%3A%2F%2Fopen.demonii.com%3A1337","udp%3A%2F%2Ftracker.coppersurfer.tk%3A6969","udp%3A%2F%2Fexodus.desync.com%3A6969"],"infoHash":"463dbb802ce19c9145baa86ab4b548f494b007bf","infoHashBuffer":{"type":"Buffer","data":[70,61,187,128,44,225,156,145,69,186,168,106,180,181,72,244,148,176,7,191]},"announce":[],"urlList":[]}}